<svg width="1774" height="622" viewBox="0 0 1774 622" fill="none" xmlns="http://www.w3.org/2000/svg">
<g clip-path="url(#clip0)">
<rect width="1774" height="622" fill="#001332"/>
<path d="M442.059 -42.1818L598.103 95.2727L481.07 197.382L460.91 176.96L554.379 95.2727L431.063 -13.3818L336.023 234.036H304.605L145.681 95.2727L262.714 -7.62183L282.874 12.8L189.405 95.2727L315.601 205.498L410.641 -42.1818H442.059Z" fill="url(#paint0_linear)"/>
<path d="M666.059 29.8182L822.103 167.273L705.07 269.382L684.91 248.96L778.379 167.273L655.063 58.6182L560.023 306.036H528.605L369.681 167.273L486.714 64.3782L506.874 84.8L413.405 167.273L539.601 277.498L634.641 29.8182H666.059Z" fill="url(#paint1_linear)"/>
<path d="M1669.53 259.247H1634.45L1457.57 740.185L1199.31 514.091L1373.76 360.113L1351.34 337.211L1150.1 514.091L1445.87 771.858H1480.47L1657.84 291.407L1910.73 514.091L1736.29 667.582L1758.7 690.484L1959.94 514.091L1669.53 259.247Z" fill="url(#paint2_linear)" fill-opacity="0.87"/>
<path d="M1169.53 113.247H1134.45L957.567 594.185L699.312 368.091L873.756 214.113L851.341 191.211L650.098 368.091L945.872 625.858H980.469L1157.84 145.407L1410.73 368.091L1236.29 521.582L1258.7 544.484L1459.94 368.091L1169.53 113.247Z" fill="url(#paint3_linear)" fill-opacity="0.59"/>
<path d="M391.669 342.48C393.618 342.48 395.189 342.669 396.382 343.047C397.604 343.425 398.564 344.051 399.262 344.924C399.989 345.767 400.556 346.945 400.964 348.458L396.251 350.073C396.018 349.171 395.771 348.531 395.509 348.153C395.276 347.775 394.884 347.513 394.331 347.367C393.778 347.193 392.891 347.105 391.669 347.105C390.36 347.105 389.385 347.265 388.745 347.585C388.105 347.876 387.655 348.415 387.393 349.2C387.131 349.956 387 351.12 387 352.691V355.222H394.767V359.847H387V378H381.982V359.847H376.571V355.222H381.982V352.691C381.982 350.16 382.287 348.167 382.898 346.713C383.538 345.229 384.556 344.153 385.953 343.484C387.378 342.815 389.284 342.48 391.669 342.48ZM413.552 378.611C411.196 378.611 409.334 378.262 407.967 377.564C406.599 376.836 405.61 375.673 404.999 374.073C404.389 372.473 404.083 370.291 404.083 367.527V351.033H409.101V367.527C409.101 369.331 409.218 370.684 409.45 371.585C409.712 372.487 410.149 373.113 410.759 373.462C411.399 373.811 412.33 373.985 413.552 373.985C415.356 373.985 416.694 373.84 417.567 373.549C418.469 373.258 419.094 372.749 419.443 372.022C419.792 371.265 419.967 370.16 419.967 368.705V351.033H425.029V378H419.967V377.564C418.454 378.262 416.316 378.611 413.552 378.611ZM430.286 378V351.033H435.304V351.687C437.137 350.844 439.275 350.422 441.719 350.422C444.192 350.422 446.097 350.771 447.435 351.469C448.803 352.138 449.777 353.287 450.359 354.916C450.941 356.516 451.232 358.785 451.232 361.724V378H446.17V361.724C446.17 359.978 446.024 358.64 445.734 357.709C445.472 356.749 445.021 356.065 444.381 355.658C443.77 355.251 442.883 355.047 441.719 355.047C439.828 355.047 438.432 355.222 437.53 355.571C436.657 355.891 436.061 356.473 435.741 357.316C435.45 358.16 435.304 359.469 435.304 361.244V378H430.286ZM467.486 378.611C464.577 378.611 462.278 378.145 460.591 377.215C458.904 376.255 457.682 374.756 456.926 372.72C456.198 370.684 455.835 367.949 455.835 364.516C455.835 361.084 456.198 358.349 456.926 356.313C457.682 354.276 458.918 352.793 460.635 351.862C462.351 350.902 464.693 350.422 467.66 350.422C470.191 350.422 472.213 350.873 473.726 351.775C475.238 352.676 476.693 354.276 478.089 356.575L473.9 359.062C473.173 357.927 472.548 357.084 472.024 356.531C471.5 355.978 470.904 355.6 470.235 355.396C469.595 355.164 468.737 355.047 467.66 355.047C465.857 355.047 464.46 355.338 463.471 355.92C462.511 356.473 461.828 357.418 461.42 358.756C461.042 360.095 460.853 362.015 460.853 364.516C460.853 367.018 461.042 368.938 461.42 370.276C461.828 371.615 462.497 372.575 463.428 373.156C464.358 373.709 465.711 373.985 467.486 373.985C468.533 373.985 469.391 373.869 470.06 373.636C470.758 373.404 471.384 373.011 471.937 372.458C472.518 371.876 473.188 371.018 473.944 369.884L478.089 372.415C476.635 374.742 475.137 376.356 473.595 377.258C472.082 378.16 470.046 378.611 467.486 378.611ZM495.74 378.611C493.616 378.611 491.914 378.247 490.634 377.52C489.354 376.793 488.409 375.644 487.798 374.073C487.216 372.473 486.925 370.378 486.925 367.789V355.135H481.514V350.509H486.925V343.091H491.943V350.509H500.976V355.135H491.943V367.789C491.943 369.418 492.06 370.684 492.292 371.585C492.525 372.458 492.903 373.084 493.427 373.462C493.98 373.811 494.751 373.985 495.74 373.985C496.816 373.985 497.587 373.913 498.052 373.767C498.547 373.622 498.896 373.36 499.1 372.982C499.332 372.604 499.594 371.949 499.885 371.018L504.598 372.633C504.162 374.145 503.594 375.338 502.896 376.211C502.198 377.055 501.282 377.665 500.147 378.044C499.042 378.422 497.573 378.611 495.74 378.611ZM522.772 351.033V373.375H530.408V378H510.117V373.375H517.754V355.658H512.256V351.033H522.772ZM519.456 347.105C518.001 347.105 516.997 346.858 516.445 346.364C515.921 345.84 515.659 344.895 515.659 343.527C515.659 342.16 515.921 341.229 516.445 340.735C516.997 340.211 518.001 339.949 519.456 339.949C520.91 339.949 521.914 340.211 522.467 340.735C523.019 341.229 523.296 342.16 523.296 343.527C523.296 344.895 523.019 345.84 522.467 346.364C521.914 346.858 520.91 347.105 519.456 347.105ZM545.31 378.611C542.604 378.611 540.466 378.131 538.895 377.171C537.353 376.211 536.233 374.713 535.535 372.676C534.866 370.64 534.531 367.92 534.531 364.516C534.531 361.113 534.866 358.393 535.535 356.356C536.233 354.32 537.353 352.822 538.895 351.862C540.466 350.902 542.604 350.422 545.31 350.422C548.015 350.422 550.153 350.902 551.724 351.862C553.295 352.822 554.415 354.32 555.084 356.356C555.782 358.393 556.131 361.113 556.131 364.516C556.131 367.92 555.782 370.64 555.084 372.676C554.415 374.713 553.295 376.211 551.724 377.171C550.153 378.131 548.015 378.611 545.31 378.611ZM545.31 373.985C546.822 373.985 547.986 373.709 548.801 373.156C549.644 372.575 550.241 371.615 550.59 370.276C550.939 368.909 551.113 366.989 551.113 364.516C551.113 362.044 550.939 360.138 550.59 358.8C550.241 357.433 549.644 356.473 548.801 355.92C547.986 355.338 546.822 355.047 545.31 355.047C543.797 355.047 542.633 355.338 541.819 355.92C541.004 356.473 540.422 357.433 540.073 358.8C539.724 360.138 539.55 362.044 539.55 364.516C539.55 366.989 539.724 368.909 540.073 370.276C540.422 371.615 541.004 372.575 541.819 373.156C542.633 373.709 543.797 373.985 545.31 373.985ZM561.302 378V351.033H566.32V351.687C568.153 350.844 570.291 350.422 572.735 350.422C575.207 350.422 577.113 350.771 578.451 351.469C579.818 352.138 580.793 353.287 581.375 354.916C581.956 356.516 582.247 358.785 582.247 361.724V378H577.186V361.724C577.186 359.978 577.04 358.64 576.749 357.709C576.487 356.749 576.036 356.065 575.396 355.658C574.786 355.251 573.898 355.047 572.735 355.047C570.844 355.047 569.447 355.222 568.546 355.571C567.673 355.891 567.076 356.473 566.756 357.316C566.466 358.16 566.32 359.469 566.32 361.244V378H561.302ZM631.468 384.327C628.559 384.327 625.984 383.338 623.744 381.36C621.504 379.382 619.774 376.604 618.552 373.025C617.33 369.418 616.719 365.258 616.719 360.545C616.719 355.833 617.33 351.687 618.552 348.109C619.774 344.502 621.504 341.709 623.744 339.731C625.984 337.753 628.559 336.764 631.468 336.764V341.389C629.548 341.389 627.846 342.189 626.363 343.789C624.908 345.36 623.774 347.6 622.959 350.509C622.144 353.389 621.737 356.735 621.737 360.545C621.737 364.356 622.144 367.716 622.959 370.625C623.774 373.505 624.908 375.745 626.363 377.345C627.846 378.916 629.548 379.702 631.468 379.702V384.327ZM646.588 378H642.137L637.075 351.033H642.137L645.104 367.658L647.94 358.451H652.304L655.097 367.571L658.108 351.033H663.169L658.064 378H653.613L650.122 367.789L646.588 378ZM676.456 350.422C679.278 350.422 681.474 350.945 683.045 351.993C684.645 353.011 685.765 354.64 686.405 356.88C687.074 359.091 687.38 362.087 687.322 365.869H669.998C670.085 367.964 670.333 369.593 670.74 370.756C671.176 371.92 671.845 372.749 672.747 373.244C673.649 373.738 674.885 373.985 676.456 373.985C677.591 373.985 678.507 373.884 679.205 373.68C679.933 373.447 680.587 373.055 681.169 372.502C681.78 371.92 682.493 371.062 683.307 369.927L687.322 372.589C685.867 374.829 684.34 376.4 682.74 377.302C681.14 378.175 679.045 378.611 676.456 378.611C673.576 378.611 671.293 378.131 669.605 377.171C667.947 376.211 666.754 374.713 666.027 372.676C665.3 370.64 664.936 367.92 664.936 364.516C664.936 361.113 665.3 358.393 666.027 356.356C666.754 354.32 667.947 352.822 669.605 351.862C671.293 350.902 673.576 350.422 676.456 350.422ZM682.173 361.244C681.998 359.644 681.707 358.407 681.3 357.535C680.922 356.662 680.34 356.036 679.554 355.658C678.798 355.251 677.765 355.047 676.456 355.047C675.002 355.047 673.838 355.236 672.965 355.615C672.093 355.993 671.423 356.633 670.958 357.535C670.522 358.436 670.231 359.673 670.085 361.244H682.173ZM703.052 378.611C700.492 378.611 698.427 378.276 696.856 377.607C695.314 376.909 693.874 375.702 692.536 373.985V343.091H697.554V351.382C699.241 350.742 701.074 350.422 703.052 350.422C705.67 350.422 707.736 350.902 709.248 351.862C710.79 352.822 711.896 354.32 712.565 356.356C713.234 358.393 713.568 361.127 713.568 364.56C713.568 367.964 713.234 370.684 712.565 372.72C711.896 374.756 710.79 376.255 709.248 377.215C707.736 378.145 705.67 378.611 703.052 378.611ZM703.052 373.985C704.478 373.985 705.583 373.709 706.368 373.156C707.154 372.575 707.707 371.615 708.027 370.276C708.376 368.938 708.55 367.033 708.55 364.56C708.55 362.087 708.376 360.182 708.027 358.844C707.707 357.476 707.154 356.502 706.368 355.92C705.583 355.338 704.478 355.047 703.052 355.047C701.539 355.047 700.39 355.222 699.605 355.571C698.848 355.891 698.31 356.487 697.99 357.36C697.699 358.233 697.554 359.527 697.554 361.244V372.371C698.252 373.011 698.979 373.447 699.736 373.68C700.492 373.884 701.597 373.985 703.052 373.985ZM754.716 378.611C752.011 378.611 749.873 378.145 748.302 377.215C746.76 376.255 745.64 374.756 744.942 372.72C744.273 370.684 743.938 367.964 743.938 364.56C743.938 361.127 744.273 358.393 744.942 356.356C745.64 354.32 746.76 352.822 748.302 351.862C749.873 350.902 752.011 350.422 754.716 350.422C756.782 350.422 758.731 350.771 760.564 351.469V343.091H765.582V378H760.564V377.695C758.876 378.305 756.927 378.611 754.716 378.611ZM754.716 373.985C756.724 373.985 758.193 373.767 759.124 373.331C760.084 372.865 760.564 372.24 760.564 371.455V361.156C760.564 359.062 760.098 357.52 759.167 356.531C758.266 355.542 756.782 355.047 754.716 355.047C753.204 355.047 752.04 355.338 751.226 355.92C750.411 356.502 749.829 357.476 749.48 358.844C749.131 360.182 748.956 362.087 748.956 364.56C748.956 367.033 749.131 368.938 749.48 370.276C749.829 371.615 750.411 372.575 751.226 373.156C752.04 373.709 753.204 373.985 754.716 373.985ZM781.269 350.422C784.091 350.422 786.287 350.945 787.858 351.993C789.458 353.011 790.578 354.64 791.218 356.88C791.887 359.091 792.192 362.087 792.134 365.869H774.811C774.898 367.964 775.145 369.593 775.552 370.756C775.989 371.92 776.658 372.749 777.56 373.244C778.461 373.738 779.698 373.985 781.269 373.985C782.403 373.985 783.32 373.884 784.018 373.68C784.745 373.447 785.4 373.055 785.981 372.502C786.592 371.92 787.305 371.062 788.12 369.927L792.134 372.589C790.68 374.829 789.152 376.4 787.552 377.302C785.952 378.175 783.858 378.611 781.269 378.611C778.389 378.611 776.105 378.131 774.418 377.171C772.76 376.211 771.567 374.713 770.84 372.676C770.112 370.64 769.749 367.92 769.749 364.516C769.749 361.113 770.112 358.393 770.84 356.356C771.567 354.32 772.76 352.822 774.418 351.862C776.105 350.902 778.389 350.422 781.269 350.422ZM786.985 361.244C786.811 359.644 786.52 358.407 786.112 357.535C785.734 356.662 785.152 356.036 784.367 355.658C783.611 355.251 782.578 355.047 781.269 355.047C779.814 355.047 778.651 355.236 777.778 355.615C776.905 355.993 776.236 356.633 775.771 357.535C775.334 358.436 775.043 359.673 774.898 361.244H786.985ZM809.566 378H805.028L795.297 351.033H800.446L807.297 370.538L814.148 351.033H819.341L809.566 378ZM833.675 350.422C836.497 350.422 838.693 350.945 840.264 351.993C841.864 353.011 842.984 354.64 843.624 356.88C844.293 359.091 844.599 362.087 844.54 365.869H827.217C827.304 367.964 827.551 369.593 827.959 370.756C828.395 371.92 829.064 372.749 829.966 373.244C830.868 373.738 832.104 373.985 833.675 373.985C834.809 373.985 835.726 373.884 836.424 373.68C837.151 373.447 837.806 373.055 838.388 372.502C838.999 371.92 839.711 371.062 840.526 369.927L844.54 372.589C843.086 374.829 841.559 376.4 839.959 377.302C838.359 378.175 836.264 378.611 833.675 378.611C830.795 378.611 828.511 378.131 826.824 377.171C825.166 376.211 823.973 374.713 823.246 372.676C822.519 370.64 822.155 367.92 822.155 364.516C822.155 361.113 822.519 358.393 823.246 356.356C823.973 354.32 825.166 352.822 826.824 351.862C828.511 350.902 830.795 350.422 833.675 350.422ZM839.391 361.244C839.217 359.644 838.926 358.407 838.519 357.535C838.14 356.662 837.559 356.036 836.773 355.658C836.017 355.251 834.984 355.047 833.675 355.047C832.22 355.047 831.057 355.236 830.184 355.615C829.311 355.993 828.642 356.633 828.177 357.535C827.74 358.436 827.449 359.673 827.304 361.244H839.391ZM864.242 378.611C862.205 378.611 860.62 378.305 859.485 377.695C858.38 377.084 857.58 376.065 857.085 374.64C856.62 373.215 856.387 371.207 856.387 368.618V347.716H850.889V343.091H861.405V368.618C861.405 370.655 861.609 372.065 862.016 372.851C862.424 373.607 863.165 373.985 864.242 373.985C864.765 373.985 865.318 373.811 865.9 373.462C866.511 373.113 867.354 372.487 868.431 371.585L871.224 375.862C869.944 376.909 868.794 377.622 867.776 378C866.787 378.407 865.609 378.611 864.242 378.611ZM885.95 378.611C883.245 378.611 881.107 378.131 879.536 377.171C877.994 376.211 876.874 374.713 876.176 372.676C875.507 370.64 875.172 367.92 875.172 364.516C875.172 361.113 875.507 358.393 876.176 356.356C876.874 354.32 877.994 352.822 879.536 351.862C881.107 350.902 883.245 350.422 885.95 350.422C888.656 350.422 890.794 350.902 892.365 351.862C893.936 352.822 895.056 354.32 895.725 356.356C896.423 358.393 896.772 361.113 896.772 364.516C896.772 367.92 896.423 370.64 895.725 372.676C895.056 374.713 893.936 376.211 892.365 377.171C890.794 378.131 888.656 378.611 885.95 378.611ZM885.95 373.985C887.463 373.985 888.627 373.709 889.441 373.156C890.285 372.575 890.881 371.615 891.23 370.276C891.579 368.909 891.754 366.989 891.754 364.516C891.754 362.044 891.579 360.138 891.23 358.8C890.881 357.433 890.285 356.473 889.441 355.92C888.627 355.338 887.463 355.047 885.95 355.047C884.438 355.047 883.274 355.338 882.459 355.92C881.645 356.473 881.063 357.433 880.714 358.8C880.365 360.138 880.19 362.044 880.19 364.516C880.19 366.989 880.365 368.909 880.714 370.276C881.063 371.615 881.645 372.575 882.459 373.156C883.274 373.709 884.438 373.985 885.95 373.985ZM901.593 385.942V351.033H906.655V351.295C908.343 350.713 910.277 350.422 912.459 350.422C915.164 350.422 917.303 350.902 918.873 351.862C920.444 352.793 921.564 354.276 922.233 356.313C922.932 358.349 923.281 361.069 923.281 364.473C923.281 367.876 922.932 370.611 922.233 372.676C921.564 374.713 920.444 376.211 918.873 377.171C917.303 378.131 915.164 378.611 912.459 378.611C910.393 378.611 908.459 378.262 906.655 377.564V385.942H901.593ZM912.459 373.985C913.972 373.985 915.135 373.695 915.95 373.113C916.793 372.531 917.39 371.571 917.739 370.233C918.088 368.865 918.263 366.945 918.263 364.473C918.263 362 918.088 360.095 917.739 358.756C917.39 357.418 916.793 356.473 915.95 355.92C915.135 355.338 913.972 355.047 912.459 355.047C908.59 355.047 906.655 355.891 906.655 357.578V367.876C906.655 369.971 907.106 371.513 908.008 372.502C908.91 373.491 910.393 373.985 912.459 373.985ZM938.487 350.422C941.309 350.422 943.506 350.945 945.077 351.993C946.677 353.011 947.797 354.64 948.437 356.88C949.106 359.091 949.411 362.087 949.353 365.869H932.029C932.117 367.964 932.364 369.593 932.771 370.756C933.207 371.92 933.877 372.749 934.778 373.244C935.68 373.738 936.917 373.985 938.487 373.985C939.622 373.985 940.538 373.884 941.237 373.68C941.964 373.447 942.618 373.055 943.2 372.502C943.811 371.92 944.524 371.062 945.338 369.927L949.353 372.589C947.898 374.829 946.371 376.4 944.771 377.302C943.171 378.175 941.077 378.611 938.487 378.611C935.607 378.611 933.324 378.131 931.637 377.171C929.978 376.211 928.786 374.713 928.058 372.676C927.331 370.64 926.967 367.92 926.967 364.516C926.967 361.113 927.331 358.393 928.058 356.356C928.786 354.32 929.978 352.822 931.637 351.862C933.324 350.902 935.607 350.422 938.487 350.422ZM944.204 361.244C944.029 359.644 943.738 358.407 943.331 357.535C942.953 356.662 942.371 356.036 941.586 355.658C940.829 355.251 939.797 355.047 938.487 355.047C937.033 355.047 935.869 355.236 934.997 355.615C934.124 355.993 933.455 356.633 932.989 357.535C932.553 358.436 932.262 359.673 932.117 361.244H944.204ZM955.527 378V351.033H960.545V353.258C961.243 352.502 962.145 351.847 963.251 351.295C964.356 350.713 965.549 350.422 966.829 350.422C968.516 350.422 969.912 350.655 971.018 351.12C972.123 351.556 973.069 352.284 973.854 353.302C974.669 354.291 975.396 355.673 976.036 357.447L971.541 359.498C971.134 358.218 970.756 357.273 970.407 356.662C970.058 356.051 969.607 355.629 969.054 355.396C968.531 355.164 967.789 355.047 966.829 355.047C964.56 355.047 962.945 355.833 961.985 357.404C961.025 358.945 960.545 361.2 960.545 364.167V378H955.527ZM983.257 379.702C985.177 379.702 986.865 378.916 988.319 377.345C989.803 375.745 990.952 373.505 991.766 370.625C992.581 367.716 992.988 364.356 992.988 360.545C992.988 356.735 992.581 353.389 991.766 350.509C990.952 347.6 989.803 345.36 988.319 343.789C986.865 342.189 985.177 341.389 983.257 341.389V336.764C986.166 336.764 988.741 337.753 990.981 339.731C993.221 341.709 994.952 344.502 996.174 348.109C997.396 351.687 998.006 355.833 998.006 360.545C998.006 365.258 997.396 369.418 996.174 373.025C994.952 376.604 993.221 379.382 990.981 381.36C988.741 383.338 986.166 384.327 983.257 384.327V379.702ZM1052.33 384.327C1048.03 384.327 1044.9 383.571 1042.95 382.058C1041 380.575 1040.03 378.189 1040.03 374.902C1040.03 373.913 1040.17 372.604 1040.46 370.975C1040.7 369.52 1040.81 368.531 1040.81 368.007C1040.81 367.455 1040.3 366.611 1039.29 365.476C1038.27 364.342 1036.61 362.698 1034.31 360.545C1036.61 358.335 1038.27 356.662 1039.29 355.527C1040.3 354.393 1040.81 353.52 1040.81 352.909C1040.81 352.415 1040.7 351.527 1040.46 350.247C1040.17 348.735 1040.03 347.396 1040.03 346.233C1040.03 342.945 1041 340.545 1042.95 339.033C1044.9 337.52 1048.03 336.764 1052.33 336.764V341.433C1050.47 341.433 1049.02 341.593 1047.97 341.913C1046.92 342.204 1046.17 342.713 1045.7 343.44C1045.23 344.138 1045 345.127 1045 346.407C1045 347.425 1045.15 348.545 1045.44 349.767C1045.7 350.815 1045.83 351.716 1045.83 352.473C1045.83 353.898 1045.44 355.265 1044.65 356.575C1043.87 357.855 1042.63 359.178 1040.94 360.545C1042.66 361.884 1043.9 363.178 1044.65 364.429C1045.44 365.68 1045.83 367.018 1045.83 368.444C1045.83 369.113 1045.71 370 1045.48 371.105C1045.19 372.444 1045.05 373.665 1045.05 374.771C1045.05 376.022 1045.26 376.996 1045.7 377.695C1046.17 378.393 1046.92 378.887 1047.97 379.178C1049.02 379.498 1050.47 379.658 1052.33 379.658V384.327ZM387 446.611C384.585 446.611 382.665 446.175 381.24 445.302C379.844 444.429 378.578 442.887 377.444 440.676L381.415 437.404C381.996 438.742 382.491 439.716 382.898 440.327C383.335 440.938 383.858 441.375 384.469 441.636C385.08 441.869 385.924 441.985 387 441.985C389.007 441.985 390.52 441.869 391.538 441.636C392.556 441.404 393.255 441.025 393.633 440.502C394.011 439.949 394.2 439.164 394.2 438.145C394.2 437.127 394.04 436.385 393.72 435.92C393.429 435.455 392.891 435.105 392.105 434.873C391.32 434.64 389.996 434.407 388.135 434.175C384.615 433.738 382.069 432.967 380.498 431.862C378.927 430.727 378.142 428.953 378.142 426.538C378.142 424.589 378.505 423.033 379.233 421.869C379.96 420.676 381.124 419.804 382.724 419.251C384.324 418.698 386.476 418.422 389.182 418.422C391.742 418.422 393.735 418.8 395.16 419.556C396.585 420.313 397.88 421.651 399.044 423.571L395.378 427.149C394.738 425.956 394.185 425.084 393.72 424.531C393.255 423.978 392.687 423.6 392.018 423.396C391.349 423.164 390.404 423.047 389.182 423.047C387.524 423.047 386.258 423.149 385.385 423.353C384.542 423.556 383.96 423.905 383.64 424.4C383.32 424.895 383.16 425.607 383.16 426.538C383.16 427.236 383.335 427.76 383.684 428.109C384.033 428.458 384.556 428.72 385.255 428.895C385.953 429.069 387.029 429.258 388.484 429.462C391.247 429.869 393.385 430.378 394.898 430.989C396.44 431.571 397.545 432.429 398.215 433.564C398.913 434.669 399.262 436.196 399.262 438.145C399.262 440.182 398.855 441.825 398.04 443.076C397.255 444.298 395.96 445.2 394.156 445.782C392.382 446.335 389.996 446.611 387 446.611ZM410.323 446H405.305V411.091H410.323V429.244H410.41L419.181 419.033H425.247L414.861 431.469L426.992 446H420.927L410.585 433.869H410.323V446ZM444.163 419.033V441.375H451.799V446H431.508V441.375H439.144V423.658H433.646V419.033H444.163ZM440.846 415.105C439.392 415.105 438.388 414.858 437.835 414.364C437.312 413.84 437.05 412.895 437.05 411.527C437.05 410.16 437.312 409.229 437.835 408.735C438.388 408.211 439.392 407.949 440.846 407.949C442.301 407.949 443.304 408.211 443.857 408.735C444.41 409.229 444.686 410.16 444.686 411.527C444.686 412.895 444.41 413.84 443.857 414.364C443.304 414.858 442.301 415.105 440.846 415.105ZM471.195 446.611C469.158 446.611 467.573 446.305 466.438 445.695C465.333 445.084 464.533 444.065 464.038 442.64C463.573 441.215 463.34 439.207 463.34 436.618V415.716H457.842V411.091H468.358V436.618C468.358 438.655 468.562 440.065 468.969 440.851C469.377 441.607 470.118 441.985 471.195 441.985C471.718 441.985 472.271 441.811 472.853 441.462C473.464 441.113 474.308 440.487 475.384 439.585L478.177 443.862C476.897 444.909 475.748 445.622 474.729 446C473.74 446.407 472.562 446.611 471.195 446.611ZM497.398 446.611C495.362 446.611 493.776 446.305 492.642 445.695C491.536 445.084 490.736 444.065 490.242 442.64C489.776 441.215 489.543 439.207 489.543 436.618V415.716H484.045V411.091H494.562V436.618C494.562 438.655 494.765 440.065 495.172 440.851C495.58 441.607 496.322 441.985 497.398 441.985C497.922 441.985 498.474 441.811 499.056 441.462C499.667 441.113 500.511 440.487 501.587 439.585L504.38 443.862C503.1 444.909 501.951 445.622 500.932 446C499.943 446.407 498.765 446.611 497.398 446.611ZM518.016 446.611C515.601 446.611 513.681 446.175 512.256 445.302C510.859 444.429 509.594 442.887 508.459 440.676L512.43 437.404C513.012 438.742 513.507 439.716 513.914 440.327C514.35 440.938 514.874 441.375 515.485 441.636C516.096 441.869 516.939 441.985 518.016 441.985C520.023 441.985 521.536 441.869 522.554 441.636C523.572 441.404 524.27 441.025 524.648 440.502C525.027 439.949 525.216 439.164 525.216 438.145C525.216 437.127 525.056 436.385 524.736 435.92C524.445 435.455 523.907 435.105 523.121 434.873C522.336 434.64 521.012 434.407 519.15 434.175C515.63 433.738 513.085 432.967 511.514 431.862C509.943 430.727 509.157 428.953 509.157 426.538C509.157 424.589 509.521 423.033 510.248 421.869C510.976 420.676 512.139 419.804 513.739 419.251C515.339 418.698 517.492 418.422 520.197 418.422C522.757 418.422 524.75 418.8 526.176 419.556C527.601 420.313 528.896 421.651 530.059 423.571L526.394 427.149C525.754 425.956 525.201 425.084 524.736 424.531C524.27 423.978 523.703 423.6 523.034 423.396C522.365 423.164 521.419 423.047 520.197 423.047C518.539 423.047 517.274 423.149 516.401 423.353C515.557 423.556 514.976 423.905 514.656 424.4C514.336 424.895 514.176 425.607 514.176 426.538C514.176 427.236 514.35 427.76 514.699 428.109C515.048 428.458 515.572 428.72 516.27 428.895C516.968 429.069 518.045 429.258 519.499 429.462C522.263 429.869 524.401 430.378 525.914 430.989C527.456 431.571 528.561 432.429 529.23 433.564C529.928 434.669 530.277 436.196 530.277 438.145C530.277 440.182 529.87 441.825 529.056 443.076C528.27 444.298 526.976 445.2 525.172 445.782C523.397 446.335 521.012 446.611 518.016 446.611ZM584.167 425.622H558.858V420.996H584.167V425.622ZM584.167 436.095H558.858V431.469H584.167V436.095ZM632.341 404.764V409.389H622.304V447.702H632.341V452.327H617.286V404.764H632.341ZM650.122 446.611C648.609 446.611 647.562 446.349 646.98 445.825C646.428 445.273 646.151 444.313 646.151 442.945C646.151 441.549 646.428 440.589 646.98 440.065C647.562 439.513 648.609 439.236 650.122 439.236C651.635 439.236 652.668 439.513 653.22 440.065C653.802 440.589 654.093 441.549 654.093 442.945C654.093 444.313 653.802 445.273 653.22 445.825C652.668 446.349 651.635 446.611 650.122 446.611ZM676.325 446.611C674.813 446.611 673.765 446.349 673.183 445.825C672.631 445.273 672.354 444.313 672.354 442.945C672.354 441.549 672.631 440.589 673.183 440.065C673.765 439.513 674.813 439.236 676.325 439.236C677.838 439.236 678.871 439.513 679.423 440.065C680.005 440.589 680.296 441.549 680.296 442.945C680.296 444.313 680.005 445.273 679.423 445.825C678.871 446.349 677.838 446.611 676.325 446.611ZM702.528 446.611C701.016 446.611 699.968 446.349 699.387 445.825C698.834 445.273 698.557 444.313 698.557 442.945C698.557 441.549 698.834 440.589 699.387 440.065C699.968 439.513 701.016 439.236 702.528 439.236C704.041 439.236 705.074 439.513 705.627 440.065C706.208 440.589 706.499 441.549 706.499 442.945C706.499 444.313 706.208 445.273 705.627 445.825C705.074 446.349 704.041 446.611 702.528 446.611ZM727.161 446.611C725.008 446.611 723.248 446.32 721.881 445.738C720.542 445.156 719.437 444.211 718.564 442.902C717.692 441.593 716.95 439.775 716.339 437.447L721.052 436.138C721.517 437.767 721.968 438.989 722.404 439.804C722.87 440.618 723.452 441.185 724.15 441.505C724.877 441.825 725.881 441.985 727.161 441.985C728.964 441.985 730.346 441.636 731.306 440.938C732.295 440.211 732.993 438.96 733.401 437.185C733.837 435.411 734.055 432.851 734.055 429.505V415.716H728.339V411.091H739.073V429.505C739.073 433.782 738.695 437.156 737.939 439.629C737.182 442.073 735.946 443.847 734.23 444.953C732.513 446.058 730.157 446.611 727.161 446.611ZM753.8 446.611C751.24 446.611 749.189 446.32 747.647 445.738C746.135 445.156 745.029 444.255 744.331 443.033C743.662 441.782 743.327 440.124 743.327 438.058C743.327 435.731 743.662 433.942 744.331 432.691C745 431.411 746.076 430.524 747.56 430.029C749.073 429.505 751.153 429.244 753.8 429.244H759.298V428.284C759.298 427.062 759.138 426.116 758.818 425.447C758.527 424.778 757.989 424.313 757.204 424.051C756.418 423.76 755.284 423.615 753.8 423.615C752.578 423.615 751.647 423.745 751.007 424.007C750.367 424.24 749.873 424.676 749.524 425.316C749.175 425.956 748.84 426.931 748.52 428.24L743.72 427.062C744.244 424.996 744.898 423.338 745.684 422.087C746.469 420.836 747.516 419.92 748.826 419.338C750.135 418.727 751.793 418.422 753.8 418.422C757.582 418.422 760.273 419.236 761.873 420.865C763.502 422.465 764.316 424.938 764.316 428.284V438.495C764.316 439.687 764.433 440.473 764.666 440.851C764.898 441.229 765.393 441.418 766.149 441.418C766.382 441.418 766.906 441.389 767.72 441.331V445.956C767.371 445.985 766.891 446 766.28 446C763.749 446 762.004 445.418 761.044 444.255C760.258 445.098 759.284 445.695 758.12 446.044C756.956 446.422 755.516 446.611 753.8 446.611ZM753.8 441.985C755.284 441.985 756.418 441.811 757.204 441.462C757.989 441.113 758.527 440.516 758.818 439.673C759.138 438.829 759.298 437.607 759.298 436.007V433.869H753.8C752.142 433.869 750.964 433.956 750.266 434.131C749.567 434.276 749.073 434.64 748.782 435.222C748.491 435.775 748.346 436.72 748.346 438.058C748.346 439.135 748.491 439.949 748.782 440.502C749.073 441.025 749.596 441.404 750.353 441.636C751.138 441.869 752.287 441.985 753.8 441.985ZM783.363 446H778.825L769.094 419.033H774.243L781.094 438.538L787.945 419.033H793.138L783.363 446ZM806.206 446.611C803.646 446.611 801.595 446.32 800.054 445.738C798.541 445.156 797.435 444.255 796.737 443.033C796.068 441.782 795.734 440.124 795.734 438.058C795.734 435.731 796.068 433.942 796.737 432.691C797.406 431.411 798.483 430.524 799.966 430.029C801.479 429.505 803.559 429.244 806.206 429.244H811.705V428.284C811.705 427.062 811.545 426.116 811.225 425.447C810.934 424.778 810.395 424.313 809.61 424.051C808.825 423.76 807.69 423.615 806.206 423.615C804.985 423.615 804.054 423.745 803.414 424.007C802.774 424.24 802.279 424.676 801.93 425.316C801.581 425.956 801.246 426.931 800.926 428.24L796.126 427.062C796.65 424.996 797.305 423.338 798.09 422.087C798.875 420.836 799.923 419.92 801.232 419.338C802.541 418.727 804.199 418.422 806.206 418.422C809.988 418.422 812.679 419.236 814.279 420.865C815.908 422.465 816.723 424.938 816.723 428.284V438.495C816.723 439.687 816.839 440.473 817.072 440.851C817.305 441.229 817.799 441.418 818.555 441.418C818.788 441.418 819.312 441.389 820.126 441.331V445.956C819.777 445.985 819.297 446 818.686 446C816.155 446 814.41 445.418 813.45 444.255C812.665 445.098 811.69 445.695 810.526 446.044C809.363 446.422 807.923 446.611 806.206 446.611ZM806.206 441.985C807.69 441.985 808.825 441.811 809.61 441.462C810.395 441.113 810.934 440.516 811.225 439.673C811.545 438.829 811.705 437.607 811.705 436.007V433.869H806.206C804.548 433.869 803.37 433.956 802.672 434.131C801.974 434.276 801.479 434.64 801.188 435.222C800.897 435.775 800.752 436.72 800.752 438.058C800.752 439.135 800.897 439.949 801.188 440.502C801.479 441.025 802.003 441.404 802.759 441.636C803.545 441.869 804.694 441.985 806.206 441.985ZM832.453 446.611C830.039 446.611 828.119 446.175 826.693 445.302C825.297 444.429 824.031 442.887 822.897 440.676L826.868 437.404C827.449 438.742 827.944 439.716 828.351 440.327C828.788 440.938 829.311 441.375 829.922 441.636C830.533 441.869 831.377 441.985 832.453 441.985C834.46 441.985 835.973 441.869 836.991 441.636C838.009 441.404 838.708 441.025 839.086 440.502C839.464 439.949 839.653 439.164 839.653 438.145C839.653 437.127 839.493 436.385 839.173 435.92C838.882 435.455 838.344 435.105 837.559 434.873C836.773 434.64 835.449 434.407 833.588 434.175C830.068 433.738 827.522 432.967 825.951 431.862C824.38 430.727 823.595 428.953 823.595 426.538C823.595 424.589 823.959 423.033 824.686 421.869C825.413 420.676 826.577 419.804 828.177 419.251C829.777 418.698 831.929 418.422 834.635 418.422C837.195 418.422 839.188 418.8 840.613 419.556C842.039 420.313 843.333 421.651 844.497 423.571L840.831 427.149C840.191 425.956 839.639 425.084 839.173 424.531C838.708 423.978 838.14 423.6 837.471 423.396C836.802 423.164 835.857 423.047 834.635 423.047C832.977 423.047 831.711 423.149 830.839 423.353C829.995 423.556 829.413 423.905 829.093 424.4C828.773 424.895 828.613 425.607 828.613 426.538C828.613 427.236 828.788 427.76 829.137 428.109C829.486 428.458 830.009 428.72 830.708 428.895C831.406 429.069 832.482 429.258 833.937 429.462C836.7 429.869 838.839 430.378 840.351 430.989C841.893 431.571 842.999 432.429 843.668 433.564C844.366 434.669 844.715 436.196 844.715 438.145C844.715 440.182 844.308 441.825 843.493 443.076C842.708 444.298 841.413 445.2 839.609 445.782C837.835 446.335 835.449 446.611 832.453 446.611ZM860.533 446.611C857.624 446.611 855.325 446.145 853.638 445.215C851.951 444.255 850.729 442.756 849.973 440.72C849.245 438.684 848.882 435.949 848.882 432.516C848.882 429.084 849.245 426.349 849.973 424.313C850.729 422.276 851.965 420.793 853.682 419.862C855.398 418.902 857.74 418.422 860.707 418.422C863.238 418.422 865.26 418.873 866.773 419.775C868.285 420.676 869.74 422.276 871.136 424.575L866.947 427.062C866.22 425.927 865.594 425.084 865.071 424.531C864.547 423.978 863.951 423.6 863.282 423.396C862.642 423.164 861.784 423.047 860.707 423.047C858.904 423.047 857.507 423.338 856.518 423.92C855.558 424.473 854.874 425.418 854.467 426.756C854.089 428.095 853.9 430.015 853.9 432.516C853.9 435.018 854.089 436.938 854.467 438.276C854.874 439.615 855.544 440.575 856.474 441.156C857.405 441.709 858.758 441.985 860.533 441.985C861.58 441.985 862.438 441.869 863.107 441.636C863.805 441.404 864.431 441.011 864.984 440.458C865.565 439.876 866.234 439.018 866.991 437.884L871.136 440.415C869.682 442.742 868.184 444.356 866.642 445.258C865.129 446.16 863.093 446.611 860.533 446.611ZM876.918 446V419.033H881.936V421.258C882.634 420.502 883.536 419.847 884.641 419.295C885.747 418.713 886.939 418.422 888.219 418.422C889.907 418.422 891.303 418.655 892.408 419.12C893.514 419.556 894.459 420.284 895.245 421.302C896.059 422.291 896.787 423.673 897.427 425.447L892.932 427.498C892.525 426.218 892.147 425.273 891.798 424.662C891.448 424.051 890.998 423.629 890.445 423.396C889.921 423.164 889.179 423.047 888.219 423.047C885.95 423.047 884.336 423.833 883.376 425.404C882.416 426.945 881.936 429.2 881.936 432.167V446H876.918ZM915.819 419.033V441.375H923.455V446H903.164V441.375H910.801V423.658H905.302V419.033H915.819ZM912.503 415.105C911.048 415.105 910.044 414.858 909.492 414.364C908.968 413.84 908.706 412.895 908.706 411.527C908.706 410.16 908.968 409.229 909.492 408.735C910.044 408.211 911.048 407.949 912.503 407.949C913.957 407.949 914.961 408.211 915.513 408.735C916.066 409.229 916.343 410.16 916.343 411.527C916.343 412.895 916.066 413.84 915.513 414.364C914.961 414.858 913.957 415.105 912.503 415.105ZM927.797 453.942V419.033H932.858V419.295C934.546 418.713 936.48 418.422 938.662 418.422C941.367 418.422 943.506 418.902 945.077 419.862C946.647 420.793 947.767 422.276 948.437 424.313C949.135 426.349 949.484 429.069 949.484 432.473C949.484 435.876 949.135 438.611 948.437 440.676C947.767 442.713 946.647 444.211 945.077 445.171C943.506 446.131 941.367 446.611 938.662 446.611C936.597 446.611 934.662 446.262 932.858 445.564V453.942H927.797ZM938.662 441.985C940.175 441.985 941.338 441.695 942.153 441.113C942.997 440.531 943.593 439.571 943.942 438.233C944.291 436.865 944.466 434.945 944.466 432.473C944.466 430 944.291 428.095 943.942 426.756C943.593 425.418 942.997 424.473 942.153 423.92C941.338 423.338 940.175 423.047 938.662 423.047C934.793 423.047 932.858 423.891 932.858 425.578V435.876C932.858 437.971 933.309 439.513 934.211 440.502C935.113 441.491 936.597 441.985 938.662 441.985ZM967.396 446.611C965.272 446.611 963.571 446.247 962.291 445.52C961.011 444.793 960.065 443.644 959.454 442.073C958.872 440.473 958.581 438.378 958.581 435.789V423.135H953.171V418.509H958.581V411.091H963.6V418.509H972.632V423.135H963.6V435.789C963.6 437.418 963.716 438.684 963.949 439.585C964.181 440.458 964.56 441.084 965.083 441.462C965.636 441.811 966.407 441.985 967.396 441.985C968.472 441.985 969.243 441.913 969.709 441.767C970.203 441.622 970.552 441.36 970.756 440.982C970.989 440.604 971.251 439.949 971.541 439.018L976.254 440.633C975.818 442.145 975.251 443.338 974.552 444.211C973.854 445.055 972.938 445.665 971.803 446.044C970.698 446.422 969.229 446.611 967.396 446.611ZM985.745 454.553C987.228 452.516 988.246 450.931 988.799 449.796C989.381 448.662 989.672 447.615 989.672 446.655C988.566 446.655 987.81 446.393 987.403 445.869C986.996 445.345 986.792 444.371 986.792 442.945C986.792 441.549 987.068 440.589 987.621 440.065C988.203 439.513 989.25 439.236 990.763 439.236C992.276 439.236 993.308 439.513 993.861 440.065C994.443 440.589 994.734 441.549 994.734 442.945C994.734 445.098 994.356 447.004 993.599 448.662C992.872 450.349 991.534 452.313 989.585 454.553H985.745ZM1049.02 425.229V411.091H1054.03V446H1049.02V429.855H1037.37V446H1032.35V411.091H1037.37V425.229H1049.02ZM1082.51 411.091V415.716H1071.9V446H1066.88V415.716H1056.24V411.091H1082.51ZM1088.72 446H1083.66L1084.32 411.091H1088.94L1095.58 427.455L1102.21 411.091H1106.88L1107.49 446H1102.47L1102.03 424.095L1097.67 435.876H1093.48L1089.12 424.095L1088.72 446ZM1132.21 446H1112.57V411.091H1117.59V441.375H1132.21V446ZM1142.96 454.553C1144.45 452.516 1145.47 450.931 1146.02 449.796C1146.6 448.662 1146.89 447.615 1146.89 446.655C1145.79 446.655 1145.03 446.393 1144.62 445.869C1144.21 445.345 1144.01 444.371 1144.01 442.945C1144.01 441.549 1144.29 440.589 1144.84 440.065C1145.42 439.513 1146.47 439.236 1147.98 439.236C1149.49 439.236 1150.53 439.513 1151.08 440.065C1151.66 440.589 1151.95 441.549 1151.95 442.945C1151.95 445.098 1151.57 447.004 1150.82 448.662C1150.09 450.349 1148.75 452.313 1146.8 454.553H1142.96ZM1201.04 446.611C1198.05 446.611 1195.69 446.015 1193.97 444.822C1192.26 443.6 1191.02 441.695 1190.26 439.105C1189.51 436.487 1189.13 432.953 1189.13 428.502C1189.13 424.08 1189.51 420.575 1190.26 417.985C1191.02 415.367 1192.26 413.462 1193.97 412.269C1195.69 411.076 1198.05 410.48 1201.04 410.48C1203.14 410.48 1204.87 410.771 1206.24 411.353C1207.6 411.935 1208.72 412.895 1209.6 414.233C1210.5 415.542 1211.27 417.345 1211.91 419.644L1207.15 421.302C1206.66 419.556 1206.18 418.262 1205.71 417.418C1205.25 416.545 1204.66 415.949 1203.97 415.629C1203.27 415.28 1202.29 415.105 1201.04 415.105C1199.27 415.105 1197.89 415.513 1196.9 416.327C1195.91 417.142 1195.2 418.509 1194.76 420.429C1194.35 422.349 1194.15 425.04 1194.15 428.502C1194.15 431.993 1194.35 434.698 1194.76 436.618C1195.2 438.538 1195.91 439.92 1196.9 440.764C1197.89 441.578 1199.27 441.985 1201.04 441.985C1202.29 441.985 1203.27 441.825 1203.97 441.505C1204.66 441.156 1205.25 440.575 1205.71 439.76C1206.18 438.916 1206.66 437.636 1207.15 435.92L1211.91 437.535C1211.27 439.804 1210.5 441.593 1209.6 442.902C1208.72 444.211 1207.6 445.156 1206.24 445.738C1204.9 446.32 1203.17 446.611 1201.04 446.611ZM1226.59 446.611C1224.38 446.611 1222.55 446.407 1221.09 446C1219.67 445.622 1218.46 444.982 1217.47 444.08C1216.51 443.149 1215.65 441.884 1214.9 440.284L1218.78 436.618C1219.3 438.131 1219.83 439.251 1220.35 439.978C1220.87 440.705 1221.6 441.229 1222.53 441.549C1223.46 441.84 1224.82 441.985 1226.59 441.985C1228.28 441.985 1229.56 441.811 1230.43 441.462C1231.3 441.084 1231.91 440.473 1232.26 439.629C1232.61 438.785 1232.79 437.549 1232.79 435.92C1232.79 434.727 1232.6 433.811 1232.22 433.171C1231.84 432.531 1231.22 431.993 1230.34 431.556C1229.47 431.091 1228.07 430.538 1226.15 429.898C1223.51 429.025 1221.47 428.182 1220.05 427.367C1218.65 426.553 1217.63 425.593 1216.99 424.487C1216.35 423.382 1216.03 421.942 1216.03 420.167C1216.03 417.811 1216.37 415.935 1217.03 414.538C1217.73 413.113 1218.84 412.08 1220.35 411.44C1221.89 410.8 1223.97 410.48 1226.59 410.48C1228.63 410.48 1230.3 410.655 1231.61 411.004C1232.95 411.353 1234.08 411.935 1235.01 412.749C1235.94 413.535 1236.79 414.64 1237.54 416.065L1233.97 419.949C1233.41 418.553 1232.89 417.535 1232.39 416.895C1231.9 416.225 1231.22 415.76 1230.34 415.498C1229.47 415.236 1228.22 415.105 1226.59 415.105C1225.05 415.105 1223.89 415.251 1223.1 415.542C1222.34 415.833 1221.81 416.342 1221.49 417.069C1221.19 417.767 1221.05 418.8 1221.05 420.167C1221.05 421.185 1221.21 421.956 1221.53 422.48C1221.85 423.004 1222.39 423.455 1223.14 423.833C1223.93 424.182 1225.21 424.633 1226.98 425.185C1229.78 426.058 1231.93 426.931 1233.44 427.804C1234.98 428.676 1236.09 429.753 1236.76 431.033C1237.46 432.284 1237.81 433.913 1237.81 435.92C1237.81 438.538 1237.44 440.618 1236.71 442.16C1235.99 443.702 1234.81 444.836 1233.18 445.564C1231.58 446.262 1229.38 446.611 1226.59 446.611ZM1252.79 446.611C1250.58 446.611 1248.75 446.407 1247.3 446C1245.87 445.622 1244.66 444.982 1243.67 444.08C1242.71 443.149 1241.86 441.884 1241.1 440.284L1244.98 436.618C1245.51 438.131 1246.03 439.251 1246.55 439.978C1247.08 440.705 1247.8 441.229 1248.74 441.549C1249.67 441.84 1251.02 441.985 1252.79 441.985C1254.48 441.985 1255.76 441.811 1256.63 441.462C1257.51 441.084 1258.12 440.473 1258.47 439.629C1258.82 438.785 1258.99 437.549 1258.99 435.92C1258.99 434.727 1258.8 433.811 1258.42 433.171C1258.04 432.531 1257.42 431.993 1256.55 431.556C1255.67 431.091 1254.28 430.538 1252.36 429.898C1249.71 429.025 1247.67 428.182 1246.25 427.367C1244.85 426.553 1243.83 425.593 1243.19 424.487C1242.55 423.382 1242.23 421.942 1242.23 420.167C1242.23 417.811 1242.57 415.935 1243.24 414.538C1243.94 413.113 1245.04 412.08 1246.55 411.44C1248.1 410.8 1250.18 410.48 1252.79 410.48C1254.83 410.48 1256.5 410.655 1257.81 411.004C1259.15 411.353 1260.28 411.935 1261.22 412.749C1262.15 413.535 1262.99 414.64 1263.75 416.065L1260.17 419.949C1259.62 418.553 1259.09 417.535 1258.6 416.895C1258.1 416.225 1257.42 415.76 1256.55 415.498C1255.67 415.236 1254.42 415.105 1252.79 415.105C1251.25 415.105 1250.09 415.251 1249.3 415.542C1248.55 415.833 1248.01 416.342 1247.69 417.069C1247.4 417.767 1247.25 418.8 1247.25 420.167C1247.25 421.185 1247.41 421.956 1247.73 422.48C1248.05 423.004 1248.59 423.455 1249.35 423.833C1250.13 424.182 1251.41 424.633 1253.19 425.185C1255.98 426.058 1258.13 426.931 1259.64 427.804C1261.19 428.676 1262.29 429.753 1262.96 431.033C1263.66 432.284 1264.01 433.913 1264.01 435.92C1264.01 438.538 1263.64 440.618 1262.92 442.16C1262.19 443.702 1261.01 444.836 1259.38 445.564C1257.78 446.262 1255.59 446.611 1252.79 446.611ZM1272.89 409.389V404.764H1287.94V452.327H1272.89V447.702H1282.92V409.389H1272.89ZM1322.24 447.658C1324.1 447.658 1325.56 447.498 1326.6 447.178C1327.65 446.887 1328.41 446.393 1328.87 445.695C1329.34 444.996 1329.57 444.022 1329.57 442.771C1329.57 441.665 1329.43 440.444 1329.13 439.105C1328.9 438 1328.79 437.113 1328.79 436.444C1328.79 435.018 1329.16 433.68 1329.92 432.429C1330.68 431.178 1331.91 429.884 1333.63 428.545C1331.94 427.207 1330.71 425.898 1329.92 424.618C1329.16 423.309 1328.79 421.927 1328.79 420.473C1328.79 419.716 1328.92 418.815 1329.18 417.767C1329.47 416.545 1329.61 415.425 1329.61 414.407C1329.61 413.127 1329.38 412.138 1328.92 411.44C1328.45 410.713 1327.68 410.204 1326.6 409.913C1325.56 409.593 1324.1 409.433 1322.24 409.433V404.764C1326.55 404.764 1329.67 405.52 1331.62 407.033C1333.6 408.545 1334.59 410.945 1334.59 414.233C1334.59 415.396 1334.44 416.735 1334.15 418.247C1333.92 419.527 1333.8 420.415 1333.8 420.909C1333.8 421.52 1334.31 422.407 1335.33 423.571C1336.35 424.735 1337.99 426.393 1340.26 428.545C1338.02 430.64 1336.38 432.269 1335.33 433.433C1334.31 434.596 1333.8 435.455 1333.8 436.007C1333.8 436.531 1333.92 437.52 1334.15 438.975C1334.44 440.604 1334.59 441.913 1334.59 442.902C1334.59 446.189 1333.6 448.575 1331.62 450.058C1329.67 451.571 1326.55 452.327 1322.24 452.327V447.658Z" fill="#DAD836"/>
<path d="M300.03 481.909L378.051 550.636L319.535 601.691L309.455 591.48L356.19 550.636L294.531 496.309L247.011 620.018H231.302L151.841 550.636L210.357 499.189L220.437 509.4L173.702 550.636L236.801 605.749L284.321 481.909H300.03Z" fill="url(#paint4_linear)"/>
<path d="M153.03 429.909L231.051 498.636L172.535 549.691L162.455 539.48L209.19 498.636L147.531 444.309L100.011 568.018H84.3024L4.84056 498.636L63.3569 447.189L73.4369 457.4L26.7024 498.636L89.8006 553.749L137.321 429.909H153.03Z" fill="url(#paint5_linear)"/>
<path d="M1486.55 66.568V54.216H1474.2V48.2H1486.55V35.848H1492.57V48.2H1504.92V54.216H1492.57V66.568H1486.55ZM1523.68 66.568V54.216H1511.33V48.2H1523.68V35.848H1529.69V48.2H1542.05V54.216H1529.69V66.568H1523.68ZM1560.8 66.568V54.216H1548.45V48.2H1560.8V35.848H1566.82V48.2H1579.17V54.216H1566.82V66.568H1560.8ZM1486.55 139.568V127.216H1474.2V121.2H1486.55V108.848H1492.57V121.2H1504.92V127.216H1492.57V139.568H1486.55ZM1523.68 139.568V127.216H1511.33V121.2H1523.68V108.848H1529.69V121.2H1542.05V127.216H1529.69V139.568H1523.68ZM1560.8 139.568V127.216H1548.45V121.2H1560.8V108.848H1566.82V121.2H1579.17V127.216H1566.82V139.568H1560.8ZM1486.55 212.568V200.216H1474.2V194.2H1486.55V181.848H1492.57V194.2H1504.92V200.216H1492.57V212.568H1486.55ZM1523.68 212.568V200.216H1511.33V194.2H1523.68V181.848H1529.69V194.2H1542.05V200.216H1529.69V212.568H1523.68ZM1560.8 212.568V200.216H1548.45V194.2H1560.8V181.848H1566.82V194.2H1579.17V200.216H1566.82V212.568H1560.8ZM1486.55 285.568V273.216H1474.2V267.2H1486.55V254.848H1492.57V267.2H1504.92V273.216H1492.57V285.568H1486.55ZM1523.68 285.568V273.216H1511.33V267.2H1523.68V254.848H1529.69V267.2H1542.05V273.216H1529.69V285.568H1523.68ZM1560.8 285.568V273.216H1548.45V267.2H1560.8V254.848H1566.82V267.2H1579.17V273.216H1566.82V285.568H1560.8ZM1486.55 358.568V346.216H1474.2V340.2H1486.55V327.848H1492.57V340.2H1504.92V346.216H1492.57V358.568H1486.55ZM1523.68 358.568V346.216H1511.33V340.2H1523.68V327.848H1529.69V340.2H1542.05V346.216H1529.69V358.568H1523.68ZM1560.8 358.568V346.216H1548.45V340.2H1560.8V327.848H1566.82V340.2H1579.17V346.216H1566.82V358.568H1560.8ZM1486.55 431.568V419.216H1474.2V413.2H1486.55V400.848H1492.57V413.2H1504.92V419.216H1492.57V431.568H1486.55ZM1523.68 431.568V419.216H1511.33V413.2H1523.68V400.848H1529.69V413.2H1542.05V419.216H1529.69V431.568H1523.68ZM1560.8 431.568V419.216H1548.45V413.2H1560.8V400.848H1566.82V413.2H1579.17V419.216H1566.82V431.568H1560.8ZM1486.55 504.568V492.216H1474.2V486.2H1486.55V473.848H1492.57V486.2H1504.92V492.216H1492.57V504.568H1486.55ZM1523.68 504.568V492.216H1511.33V486.2H1523.68V473.848H1529.69V486.2H1542.05V492.216H1529.69V504.568H1523.68ZM1560.8 504.568V492.216H1548.45V486.2H1560.8V473.848H1566.82V486.2H1579.17V492.216H1566.82V504.568H1560.8ZM1486.55 577.568V565.216H1474.2V559.2H1486.55V546.848H1492.57V559.2H1504.92V565.216H1492.57V577.568H1486.55ZM1523.68 577.568V565.216H1511.33V559.2H1523.68V546.848H1529.69V559.2H1542.05V565.216H1529.69V577.568H1523.68ZM1560.8 577.568V565.216H1548.45V559.2H1560.8V546.848H1566.82V559.2H1579.17V565.216H1566.82V577.568H1560.8Z" fill="#DAD836"/>
<path d="M433.44 266.873L423.229 277.084L364.713 225.636L423.229 174.189L433.44 184.4L386.575 225.636L433.44 266.873ZM511.788 173.273V187.149H462.828V215.687H494.246V229.564H462.828V264.124H511.788V278H447.773V173.273H511.788ZM520.361 278V197.098H535.415V196.575C539.342 195.789 542.484 195.396 544.841 195.396C548.157 195.396 550.731 195.876 552.564 196.836C554.484 197.709 556.317 199.411 558.062 201.942C560.331 199.411 562.513 197.709 564.608 196.836C566.79 195.876 569.713 195.396 573.379 195.396C578.353 195.396 582.193 196.444 584.899 198.538C587.691 200.545 589.655 203.949 590.79 208.749C592.011 213.549 592.622 220.225 592.622 228.778V278H577.568V228.778C577.568 221.796 577.219 216.996 576.521 214.378C575.822 211.76 574.513 210.451 572.593 210.451C570.411 210.451 568.71 210.975 567.488 212.022C566.266 212.982 565.393 214.684 564.87 217.127C564.346 219.571 564.084 222.975 564.084 227.338V278H549.03V229.564C549.03 222.32 548.637 217.345 547.851 214.64C547.153 211.847 545.888 210.451 544.055 210.451C541.786 210.451 540.041 210.975 538.819 212.022C537.597 212.982 536.724 214.684 536.201 217.127C535.677 219.571 535.415 222.975 535.415 227.338V278H520.361ZM598.97 278V197.098H614.024V196.575C617.952 195.789 621.094 195.396 623.45 195.396C626.766 195.396 629.341 195.876 631.174 196.836C633.094 197.709 634.926 199.411 636.672 201.942C638.941 199.411 641.123 197.709 643.217 196.836C645.399 195.876 648.323 195.396 651.988 195.396C656.963 195.396 660.803 196.444 663.508 198.538C666.301 200.545 668.264 203.949 669.399 208.749C670.621 213.549 671.232 220.225 671.232 228.778V278H656.177V228.778C656.177 221.796 655.828 216.996 655.13 214.378C654.432 211.76 653.123 210.451 651.203 210.451C649.021 210.451 647.319 210.975 646.097 212.022C644.875 212.982 644.003 214.684 643.479 217.127C642.955 219.571 642.694 222.975 642.694 227.338V278H627.639V229.564C627.639 222.32 627.246 217.345 626.461 214.64C625.763 211.847 624.497 210.451 622.664 210.451C620.395 210.451 618.65 210.975 617.428 212.022C616.206 212.982 615.334 214.684 614.81 217.127C614.286 219.571 614.024 222.975 614.024 227.338V278H598.97ZM710.307 279.833C702.627 279.833 696.474 278.96 691.848 277.215C687.31 275.469 683.994 272.764 681.899 269.098C679.892 265.345 678.888 260.371 678.888 254.175C678.888 247.193 679.892 241.825 681.899 238.073C683.907 234.233 687.136 231.571 691.587 230.087C696.125 228.516 702.365 227.731 710.307 227.731H726.801V224.851C726.801 221.185 726.321 218.349 725.361 216.342C724.488 214.335 722.874 212.938 720.517 212.153C718.161 211.28 714.758 210.844 710.307 210.844C706.641 210.844 703.848 211.236 701.928 212.022C700.008 212.72 698.525 214.029 697.477 215.949C696.43 217.869 695.427 220.793 694.467 224.72L680.067 221.185C681.637 214.989 683.601 210.015 685.957 206.262C688.314 202.509 691.456 199.76 695.383 198.015C699.31 196.182 704.285 195.265 710.307 195.265C721.652 195.265 729.725 197.709 734.525 202.596C739.412 207.396 741.856 214.815 741.856 224.851V255.484C741.856 259.062 742.205 261.418 742.903 262.553C743.601 263.687 745.085 264.255 747.354 264.255C748.052 264.255 749.623 264.167 752.067 263.993V277.869C751.019 277.956 749.579 278 747.747 278C740.154 278 734.918 276.255 732.038 272.764C729.681 275.295 726.758 277.084 723.267 278.131C719.776 279.265 715.456 279.833 710.307 279.833ZM710.307 265.956C714.758 265.956 718.161 265.433 720.517 264.385C722.874 263.338 724.488 261.549 725.361 259.018C726.321 256.487 726.801 252.822 726.801 248.022V241.607H710.307C705.332 241.607 701.798 241.869 699.703 242.393C697.608 242.829 696.125 243.92 695.252 245.665C694.379 247.324 693.943 250.16 693.943 254.175C693.943 257.404 694.379 259.847 695.252 261.505C696.125 263.076 697.696 264.211 699.965 264.909C702.321 265.607 705.768 265.956 710.307 265.956ZM792.32 279.833C787.781 279.833 784.64 279.047 782.894 277.476C781.236 275.818 780.407 272.938 780.407 268.836C780.407 264.647 781.236 261.767 782.894 260.196C784.64 258.538 787.781 257.709 792.32 257.709C796.858 257.709 799.956 258.538 801.614 260.196C803.36 261.767 804.232 264.647 804.232 268.836C804.232 272.938 803.36 275.818 801.614 277.476C799.956 279.047 796.858 279.833 792.32 279.833ZM870.929 279.833C864.296 279.833 858.798 279.222 854.434 278C850.158 276.865 846.536 274.945 843.569 272.24C840.689 269.447 838.114 265.651 835.845 260.851L847.496 249.855C849.067 254.393 850.638 257.753 852.209 259.935C853.78 262.116 855.962 263.687 858.754 264.647C861.547 265.52 865.605 265.956 870.929 265.956C875.991 265.956 879.831 265.433 882.449 264.385C885.067 263.251 886.9 261.418 887.947 258.887C888.994 256.356 889.518 252.647 889.518 247.76C889.518 244.182 888.951 241.433 887.816 239.513C886.682 237.593 884.805 235.978 882.187 234.669C879.569 233.273 875.38 231.615 869.62 229.695C861.678 227.076 855.569 224.545 851.293 222.102C847.104 219.658 844.049 216.778 842.129 213.462C840.209 210.145 839.249 205.825 839.249 200.502C839.249 193.433 840.253 187.804 842.26 183.615C844.354 179.338 847.671 176.24 852.209 174.32C856.834 172.4 863.074 171.44 870.929 171.44C877.038 171.44 882.056 171.964 885.984 173.011C889.998 174.058 893.402 175.804 896.194 178.247C898.987 180.604 901.518 183.92 903.787 188.196L893.053 199.847C891.394 195.658 889.824 192.604 888.34 190.684C886.856 188.676 884.805 187.28 882.187 186.495C879.569 185.709 875.816 185.316 870.929 185.316C866.304 185.316 862.813 185.753 860.456 186.625C858.187 187.498 856.573 189.025 855.613 191.207C854.74 193.302 854.304 196.4 854.304 200.502C854.304 203.556 854.784 205.869 855.744 207.44C856.704 209.011 858.318 210.364 860.587 211.498C862.944 212.545 866.784 213.898 872.107 215.556C880.485 218.175 886.944 220.793 891.482 223.411C896.107 226.029 899.424 229.258 901.431 233.098C903.525 236.851 904.573 241.738 904.573 247.76C904.573 255.615 903.482 261.855 901.3 266.48C899.118 271.105 895.584 274.509 890.696 276.691C885.896 278.785 879.307 279.833 870.929 279.833ZM984.686 156.909L1062.71 225.636L1004.19 276.691L994.111 266.48L1040.85 225.636L979.188 171.309L929.05 301.825H913.34L968.977 156.909H984.686Z" fill="#DAD836"/>
</g>
<defs>
<linearGradient id="paint0_linear" x1="322" y1="-93" x2="381" y2="256" gradientUnits="userSpaceOnUse">
<stop offset="0.145833" stop-color="#E307C1" stop-opacity="0"/>
<stop offset="0.859375" stop-color="#E307C1"/>
</linearGradient>
<linearGradient id="paint1_linear" x1="605" y1="-42" x2="605" y2="309" gradientUnits="userSpaceOnUse">
<stop offset="0.173789" stop-color="#FF5280"/>
<stop offset="1" stop-color="#FF5280" stop-opacity="0"/>
</linearGradient>
<linearGradient id="paint2_linear" x1="1563" y1="124" x2="1563" y2="816" gradientUnits="userSpaceOnUse">
<stop offset="0.182292" stop-color="#E307C1"/>
<stop offset="1" stop-color="#E307C1" stop-opacity="0"/>
</linearGradient>
<linearGradient id="paint3_linear" x1="1046" y1="598" x2="1076" y2="32" gradientUnits="userSpaceOnUse">
<stop offset="0.291667" stop-color="#810099"/>
<stop offset="0.989583" stop-color="#800099" stop-opacity="0"/>
</linearGradient>
<linearGradient id="paint4_linear" x1="280.5" y1="446" x2="280.5" y2="657" gradientUnits="userSpaceOnUse">
<stop stop-color="#FF5280" stop-opacity="0"/>
<stop offset="0.696682" stop-color="#FF5280"/>
</linearGradient>
<linearGradient id="paint5_linear" x1="129" y1="394" x2="128.492" y2="632.716" gradientUnits="userSpaceOnUse">
<stop stop-color="#E307C1"/>
<stop offset="1" stop-color="#E307C1" stop-opacity="0"/>
</linearGradient>
<clipPath id="clip0">
<rect width="1774" height="622" fill="white"/>
</clipPath>
</defs>
</svg>
